<svg width="100" height="100" viewBox="0 0 100 100" xmlns="http://www.w3.org/2000/svg">
  <defs>
    <linearGradient id="eggplantGradient" x1="0%" y1="0%" x2="100%" y2="100%">
      <stop offset="0%" style="stop-color:#8B4A9C;stop-opacity:1" />
      <stop offset="50%" style="stop-color:#6A1B9A;stop-opacity:1" />
      <stop offset="100%" style="stop-color:#4A148C;stop-opacity:1" />
    </linearGradient>
    <linearGradient id="leafGradient" x1="0%" y1="0%" x2="100%" y2="100%">
      <stop offset="0%" style="stop-color:#4CAF50;stop-opacity:1" />
      <stop offset="100%" style="stop-color:#2E7D32;stop-opacity:1" />
    </linearGradient>
  </defs>
  
  <!-- Berenjena body -->
  <ellipse cx="50" cy="65" rx="20" ry="30" fill="url(#eggplantGradient)" />
  
  <!-- Berenjena top -->
  <ellipse cx="50" cy="35" rx="8" ry="6" fill="#4A148C" />
  
  <!-- Leaf/stem -->
  <path d="M 45 30 Q 40 25 35 28 Q 38 32 45 30" fill="url(#leafGradient)" />
  <path d="M 55 30 Q 60 25 65 28 Q 62 32 55 30" fill="url(#leafGradient)" />
  
  <!-- Highlight -->
  <ellipse cx="45" cy="55" rx="3" ry="8" fill="#B39DDB" opacity="0.6" />
  
  <!-- Heart symbol for dating app -->
  <path d="M 75 20 C 75 15, 85 15, 85 20 C 85 15, 95 15, 95 20 C 95 30, 85 35, 85 35 C 85 35, 75 30, 75 20 Z" fill="#E91E63" />
</svg>