<svg xmlns="http://www.w3.org/2000/svg" viewBox="0 0 128 128" width="120" height="120">
  <defs>
    <linearGradient id="b1" x1="0%" y1="0%" x2="100%" y2="100%">
      <stop offset="0%" stop-color="#9b4ede"/>
      <stop offset="60%" stop-color="#7a33c1"/>
      <stop offset="100%" stop-color="#4e1f86"/>
    </linearGradient>
    <linearGradient id="b2" x1="0%" y1="0%" x2="100%" y2="100%">
      <stop offset="0%" stop-color="#79d145"/>
      <stop offset="100%" stop-color="#3e9737"/>
    </linearGradient>
  </defs>
  <path fill="url(#b2)" d="M88 22c8-6 18-4 22-10-4-6-16-6-26 2-4-4-12-6-16-2-2 2 0 8 4 12 4 2 10 2 16-2z"/>
  <path fill="url(#b1)" d="M84 28c16 18 20 54-8 82-20 20-46 18-60 2-12-14-8-46 18-70 16-14 36-18 50-14z"/>
</svg>